<?xml version="1.0" encoding="iso-8859-1"?>
<!-- Generator: Adobe Illustrator 19.0.0, SVG Export Plug-In . SVG Version: 6.00 Build 0)  -->
<svg version="1.1" id="Layer_1" xmlns="http://www.w3.org/2000/svg" xmlns:xlink="http://www.w3.org/1999/xlink" x="0px" y="0px"
	 viewBox="0 0 512 512" style="enable-background:new 0 0 512 512;" xml:space="preserve">
<g>
	<g>
		<path d="M431.701,154.727h-32.464l11.149-99.085c1.109-9.863-6.615-18.521-16.554-18.521h-94.016
			c6.457-2.294,11.089-8.44,11.089-15.685c0-9.2-7.459-16.659-16.659-16.659H163.186c-9.2,0-16.659,7.459-16.659,16.659
			c0,7.243,4.632,13.39,11.089,15.685H16.678c-13.237,0-21.182,14.74-13.929,25.797l63.871,97.365l48.614,332.691
			c1.196,8.183,8.214,14.25,16.483,14.25h212.969c8.479,0,15.606-6.369,16.554-14.796l10.663-94.768h59.652
			c44.357,0,80.444-36.087,80.444-80.444v-82.19C512,190.748,475.978,154.727,431.701,154.727z M329.797,473.906H146.118
			l-30.665-209.868h237.958L329.797,473.906z M357.16,230.72H110.584l-11.529-78.903c-0.351-2.402-1.223-4.699-2.554-6.729
			l-48.971-74.65h327.665L357.16,230.72z M431.555,364.341h-55.902l19.836-176.297h36.212c25.906,0,46.98,21.076,46.98,46.98v82.19
			h0.001C478.682,343.2,457.541,364.341,431.555,364.341z"/>
	</g>
</g>
<g>
</g>
<g>
</g>
<g>
</g>
<g>
</g>
<g>
</g>
<g>
</g>
<g>
</g>
<g>
</g>
<g>
</g>
<g>
</g>
<g>
</g>
<g>
</g>
<g>
</g>
<g>
</g>
<g>
</g>
</svg>
